<mxfile host="app.diagrams.net" agent="Mozilla/5.0 (Windows NT 10.0; Win64; x64) AppleWebKit/537.36 (KHTML, like Gecko) Chrome/141.0.0.0 Safari/537.36 Edg/141.0.0.0" version="28.2.8">
  <diagram name="Page-1" id="2YBvvXClWsGukQMizWep">
    <mxGraphModel dx="1418" dy="794" grid="1" gridSize="10" guides="1" tooltips="1" connect="1" arrows="1" fold="1" page="1" pageScale="1" pageWidth="850" pageHeight="1100" math="0" shadow="0">
      <root>
        <mxCell id="0" />
        <mxCell id="1" parent="0" />
        <mxCell id="aM9ryv3xv72pqoxQDRHE-1" value=":GUI" style="shape=umlLifeline;perimeter=lifelinePerimeter;whiteSpace=wrap;html=1;container=0;dropTarget=0;collapsible=0;recursiveResize=0;outlineConnect=0;portConstraint=eastwest;newEdgeStyle={&quot;edgeStyle&quot;:&quot;elbowEdgeStyle&quot;,&quot;elbow&quot;:&quot;vertical&quot;,&quot;curved&quot;:0,&quot;rounded&quot;:0};" parent="1" vertex="1">
          <mxGeometry x="111" y="48" width="100" height="672" as="geometry" />
        </mxCell>
        <mxCell id="aM9ryv3xv72pqoxQDRHE-2" value="" style="html=1;points=[];perimeter=orthogonalPerimeter;outlineConnect=0;targetShapes=umlLifeline;portConstraint=eastwest;newEdgeStyle={&quot;edgeStyle&quot;:&quot;elbowEdgeStyle&quot;,&quot;elbow&quot;:&quot;vertical&quot;,&quot;curved&quot;:0,&quot;rounded&quot;:0};" parent="aM9ryv3xv72pqoxQDRHE-1" vertex="1">
          <mxGeometry x="45" y="70" width="10" height="560" as="geometry" />
        </mxCell>
        <mxCell id="aM9ryv3xv72pqoxQDRHE-3" value="dispatch" style="html=1;verticalAlign=bottom;startArrow=oval;endArrow=block;startSize=8;edgeStyle=elbowEdgeStyle;elbow=vertical;curved=0;rounded=0;" parent="aM9ryv3xv72pqoxQDRHE-1" target="aM9ryv3xv72pqoxQDRHE-2" edge="1">
          <mxGeometry relative="1" as="geometry">
            <mxPoint x="-15" y="70" as="sourcePoint" />
          </mxGeometry>
        </mxCell>
        <mxCell id="aM9ryv3xv72pqoxQDRHE-5" value=":ControllerClass" style="shape=umlLifeline;perimeter=lifelinePerimeter;whiteSpace=wrap;html=1;container=0;dropTarget=0;collapsible=0;recursiveResize=0;outlineConnect=0;portConstraint=eastwest;newEdgeStyle={&quot;edgeStyle&quot;:&quot;elbowEdgeStyle&quot;,&quot;elbow&quot;:&quot;vertical&quot;,&quot;curved&quot;:0,&quot;rounded&quot;:0};" parent="1" vertex="1">
          <mxGeometry x="354" y="48" width="100" height="672" as="geometry" />
        </mxCell>
        <mxCell id="aM9ryv3xv72pqoxQDRHE-6" value="" style="html=1;points=[];perimeter=orthogonalPerimeter;outlineConnect=0;targetShapes=umlLifeline;portConstraint=eastwest;newEdgeStyle={&quot;edgeStyle&quot;:&quot;elbowEdgeStyle&quot;,&quot;elbow&quot;:&quot;vertical&quot;,&quot;curved&quot;:0,&quot;rounded&quot;:0};" parent="aM9ryv3xv72pqoxQDRHE-5" vertex="1">
          <mxGeometry x="45" y="112" width="10" height="518" as="geometry" />
        </mxCell>
        <mxCell id="aM9ryv3xv72pqoxQDRHE-7" value="" style="html=1;verticalAlign=bottom;endArrow=block;edgeStyle=elbowEdgeStyle;elbow=vertical;curved=0;rounded=0;" parent="1" edge="1">
          <mxGeometry relative="1" as="geometry">
            <mxPoint x="166" y="160" as="sourcePoint" />
            <Array as="points">
              <mxPoint x="209" y="160" />
              <mxPoint x="251" y="140" />
            </Array>
            <mxPoint x="399" y="160" as="targetPoint" />
          </mxGeometry>
        </mxCell>
        <mxCell id="0jZ7-tW0BVTjiJO53gmQ-3" value="getNotifications(cID)" style="edgeLabel;html=1;align=center;verticalAlign=middle;resizable=0;points=[];" parent="aM9ryv3xv72pqoxQDRHE-7" vertex="1" connectable="0">
          <mxGeometry x="-0.0645" y="3" relative="1" as="geometry">
            <mxPoint y="-7" as="offset" />
          </mxGeometry>
        </mxCell>
        <mxCell id="VEuW4mEXxXxEv6BpwXh5-1" value="Customer" style="shape=umlActor;verticalLabelPosition=bottom;verticalAlign=top;html=1;" parent="1" vertex="1">
          <mxGeometry x="59" y="78" width="30" height="62" as="geometry" />
        </mxCell>
        <mxCell id="VEuW4mEXxXxEv6BpwXh5-5" value=":Notifications" style="shape=umlLifeline;perimeter=lifelinePerimeter;whiteSpace=wrap;html=1;container=0;dropTarget=0;collapsible=0;recursiveResize=0;outlineConnect=0;portConstraint=eastwest;newEdgeStyle={&quot;edgeStyle&quot;:&quot;elbowEdgeStyle&quot;,&quot;elbow&quot;:&quot;vertical&quot;,&quot;curved&quot;:0,&quot;rounded&quot;:0};" parent="1" vertex="1">
          <mxGeometry x="739" y="48" width="120" height="672" as="geometry" />
        </mxCell>
        <mxCell id="VEuW4mEXxXxEv6BpwXh5-6" value="" style="html=1;points=[];perimeter=orthogonalPerimeter;outlineConnect=0;targetShapes=umlLifeline;portConstraint=eastwest;newEdgeStyle={&quot;edgeStyle&quot;:&quot;elbowEdgeStyle&quot;,&quot;elbow&quot;:&quot;vertical&quot;,&quot;curved&quot;:0,&quot;rounded&quot;:0};" parent="VEuW4mEXxXxEv6BpwXh5-5" vertex="1">
          <mxGeometry x="55" y="190" width="10" height="320" as="geometry" />
        </mxCell>
        <mxCell id="0jZ7-tW0BVTjiJO53gmQ-4" value=":Customer" style="shape=umlLifeline;perimeter=lifelinePerimeter;whiteSpace=wrap;html=1;container=0;dropTarget=0;collapsible=0;recursiveResize=0;outlineConnect=0;portConstraint=eastwest;newEdgeStyle={&quot;edgeStyle&quot;:&quot;elbowEdgeStyle&quot;,&quot;elbow&quot;:&quot;vertical&quot;,&quot;curved&quot;:0,&quot;rounded&quot;:0};" parent="1" vertex="1">
          <mxGeometry x="549" y="48" width="120" height="672" as="geometry" />
        </mxCell>
        <mxCell id="0jZ7-tW0BVTjiJO53gmQ-5" value="" style="html=1;points=[];perimeter=orthogonalPerimeter;outlineConnect=0;targetShapes=umlLifeline;portConstraint=eastwest;newEdgeStyle={&quot;edgeStyle&quot;:&quot;elbowEdgeStyle&quot;,&quot;elbow&quot;:&quot;vertical&quot;,&quot;curved&quot;:0,&quot;rounded&quot;:0};" parent="0jZ7-tW0BVTjiJO53gmQ-4" vertex="1">
          <mxGeometry x="55" y="150" width="10" height="400" as="geometry" />
        </mxCell>
        <mxCell id="0jZ7-tW0BVTjiJO53gmQ-28" value="" style="swimlane;startSize=0;" parent="1" vertex="1">
          <mxGeometry x="130" y="330" width="700" height="310" as="geometry" />
        </mxCell>
        <mxCell id="EJbwKhiUwv7nrLsNbU0W-18" value="&lt;span style=&quot;text-wrap-mode: nowrap; background-color: rgb(255, 255, 255);&quot;&gt;If success&lt;/span&gt;" style="text;whiteSpace=wrap;html=1;fontSize=12;align=center;" parent="0jZ7-tW0BVTjiJO53gmQ-28" vertex="1">
          <mxGeometry x="20" y="2" width="130" height="40" as="geometry" />
        </mxCell>
        <mxCell id="0jZ7-tW0BVTjiJO53gmQ-56" value="" style="line;strokeWidth=1;html=1;" parent="0jZ7-tW0BVTjiJO53gmQ-28" vertex="1">
          <mxGeometry y="145" width="700" height="10" as="geometry" />
        </mxCell>
        <mxCell id="U9XzbLY1-AbpNYxQL2TC-7" value="display &quot;ALL Notifications&quot;" style="html=1;verticalAlign=bottom;endArrow=open;dashed=1;endSize=8;edgeStyle=elbowEdgeStyle;elbow=vertical;curved=0;rounded=0;" parent="0jZ7-tW0BVTjiJO53gmQ-28" edge="1">
          <mxGeometry relative="1" as="geometry">
            <mxPoint x="35" y="110.00000000000011" as="targetPoint" />
            <Array as="points">
              <mxPoint x="133" y="110" />
            </Array>
            <mxPoint x="268" y="110" as="sourcePoint" />
          </mxGeometry>
        </mxCell>
        <mxCell id="U9XzbLY1-AbpNYxQL2TC-20" value="&lt;span style=&quot;text-wrap-mode: nowrap; background-color: rgb(255, 255, 255);&quot;&gt;else&lt;/span&gt;" style="text;whiteSpace=wrap;html=1;fontSize=12;align=center;" parent="0jZ7-tW0BVTjiJO53gmQ-28" vertex="1">
          <mxGeometry x="3" y="155" width="130" height="40" as="geometry" />
        </mxCell>
        <mxCell id="U9XzbLY1-AbpNYxQL2TC-44" value="return NotificationsList" style="html=1;verticalAlign=bottom;endArrow=open;dashed=1;endSize=8;edgeStyle=elbowEdgeStyle;elbow=vertical;curved=0;rounded=0;" parent="0jZ7-tW0BVTjiJO53gmQ-28" edge="1">
          <mxGeometry relative="1" as="geometry">
            <mxPoint x="279" y="70" as="targetPoint" />
            <Array as="points">
              <mxPoint x="369" y="70" />
            </Array>
            <mxPoint x="474" y="70.00000000000011" as="sourcePoint" />
          </mxGeometry>
        </mxCell>
        <mxCell id="U9XzbLY1-AbpNYxQL2TC-45" value="return NotificationsList" style="html=1;verticalAlign=bottom;endArrow=open;dashed=1;endSize=8;edgeStyle=elbowEdgeStyle;elbow=vertical;curved=0;rounded=0;" parent="0jZ7-tW0BVTjiJO53gmQ-28" edge="1">
          <mxGeometry relative="1" as="geometry">
            <mxPoint x="483" y="30" as="targetPoint" />
            <Array as="points">
              <mxPoint x="558" y="30" />
            </Array>
            <mxPoint x="663" y="30.000000000000114" as="sourcePoint" />
          </mxGeometry>
        </mxCell>
        <mxCell id="U9XzbLY1-AbpNYxQL2TC-46" value="return EmptyList" style="html=1;verticalAlign=bottom;endArrow=open;dashed=1;endSize=8;edgeStyle=elbowEdgeStyle;elbow=vertical;curved=0;rounded=0;" parent="0jZ7-tW0BVTjiJO53gmQ-28" edge="1">
          <mxGeometry relative="1" as="geometry">
            <mxPoint x="483" y="190" as="targetPoint" />
            <Array as="points">
              <mxPoint x="558" y="190" />
            </Array>
            <mxPoint x="663" y="190.0000000000001" as="sourcePoint" />
          </mxGeometry>
        </mxCell>
        <mxCell id="U9XzbLY1-AbpNYxQL2TC-47" value="return EmptyList" style="html=1;verticalAlign=bottom;endArrow=open;dashed=1;endSize=8;edgeStyle=elbowEdgeStyle;elbow=vertical;curved=0;rounded=0;" parent="0jZ7-tW0BVTjiJO53gmQ-28" edge="1">
          <mxGeometry relative="1" as="geometry">
            <mxPoint x="279" y="230" as="targetPoint" />
            <Array as="points">
              <mxPoint x="369" y="230" />
            </Array>
            <mxPoint x="474" y="230.0000000000001" as="sourcePoint" />
          </mxGeometry>
        </mxCell>
        <mxCell id="U9XzbLY1-AbpNYxQL2TC-48" value="display &quot;No new Notifications&quot;" style="html=1;verticalAlign=bottom;endArrow=open;dashed=1;endSize=8;edgeStyle=elbowEdgeStyle;elbow=vertical;curved=0;rounded=0;" parent="0jZ7-tW0BVTjiJO53gmQ-28" edge="1">
          <mxGeometry relative="1" as="geometry">
            <mxPoint x="36" y="270.0000000000001" as="targetPoint" />
            <Array as="points">
              <mxPoint x="134" y="270" />
            </Array>
            <mxPoint x="269" y="270" as="sourcePoint" />
          </mxGeometry>
        </mxCell>
        <mxCell id="U9XzbLY1-AbpNYxQL2TC-10" value=":DB" style="shape=umlLifeline;perimeter=lifelinePerimeter;whiteSpace=wrap;html=1;container=0;dropTarget=0;collapsible=0;recursiveResize=0;outlineConnect=0;portConstraint=eastwest;newEdgeStyle={&quot;edgeStyle&quot;:&quot;elbowEdgeStyle&quot;,&quot;elbow&quot;:&quot;vertical&quot;,&quot;curved&quot;:0,&quot;rounded&quot;:0};" parent="1" vertex="1">
          <mxGeometry x="910" y="48" width="120" height="672" as="geometry" />
        </mxCell>
        <mxCell id="U9XzbLY1-AbpNYxQL2TC-11" value="" style="html=1;points=[];perimeter=orthogonalPerimeter;outlineConnect=0;targetShapes=umlLifeline;portConstraint=eastwest;newEdgeStyle={&quot;edgeStyle&quot;:&quot;elbowEdgeStyle&quot;,&quot;elbow&quot;:&quot;vertical&quot;,&quot;curved&quot;:0,&quot;rounded&quot;:0};" parent="U9XzbLY1-AbpNYxQL2TC-10" vertex="1">
          <mxGeometry x="55" y="232" width="10" height="48" as="geometry" />
        </mxCell>
        <mxCell id="U9XzbLY1-AbpNYxQL2TC-12" value="" style="html=1;verticalAlign=bottom;endArrow=block;edgeStyle=elbowEdgeStyle;elbow=vertical;curved=0;rounded=0;" parent="1" edge="1">
          <mxGeometry relative="1" as="geometry">
            <mxPoint x="804" y="290" as="sourcePoint" />
            <Array as="points">
              <mxPoint x="840" y="280" />
              <mxPoint x="830" y="597" />
              <mxPoint x="860" y="697" />
              <mxPoint x="828" y="554" />
              <mxPoint x="870" y="534" />
            </Array>
            <mxPoint x="965" y="280" as="targetPoint" />
          </mxGeometry>
        </mxCell>
        <mxCell id="U9XzbLY1-AbpNYxQL2TC-13" value="retrieveNotifications(cID)" style="edgeLabel;html=1;align=center;verticalAlign=middle;resizable=0;points=[];" parent="U9XzbLY1-AbpNYxQL2TC-12" vertex="1" connectable="0">
          <mxGeometry x="-0.0645" y="3" relative="1" as="geometry">
            <mxPoint x="9" y="-6" as="offset" />
          </mxGeometry>
        </mxCell>
        <mxCell id="U9XzbLY1-AbpNYxQL2TC-8" value="" style="html=1;verticalAlign=bottom;endArrow=block;edgeStyle=elbowEdgeStyle;elbow=vertical;curved=0;rounded=0;" parent="1" edge="1">
          <mxGeometry relative="1" as="geometry">
            <mxPoint x="410" y="200" as="sourcePoint" />
            <Array as="points">
              <mxPoint x="453" y="200" />
              <mxPoint x="495" y="180" />
            </Array>
            <mxPoint x="605" y="200" as="targetPoint" />
          </mxGeometry>
        </mxCell>
        <mxCell id="U9XzbLY1-AbpNYxQL2TC-9" value="requestNotifications(cID)" style="edgeLabel;html=1;align=center;verticalAlign=middle;resizable=0;points=[];" parent="U9XzbLY1-AbpNYxQL2TC-8" vertex="1" connectable="0">
          <mxGeometry x="-0.0645" y="3" relative="1" as="geometry">
            <mxPoint y="-7" as="offset" />
          </mxGeometry>
        </mxCell>
        <mxCell id="BeFSrIk958UR365Rvj6z-9" value="" style="html=1;verticalAlign=bottom;endArrow=block;edgeStyle=elbowEdgeStyle;elbow=vertical;curved=0;rounded=0;" parent="1" edge="1">
          <mxGeometry relative="1" as="geometry">
            <mxPoint x="614" y="240" as="sourcePoint" />
            <Array as="points">
              <mxPoint x="657" y="240" />
              <mxPoint x="699" y="220" />
            </Array>
            <mxPoint x="794" y="240" as="targetPoint" />
          </mxGeometry>
        </mxCell>
        <mxCell id="BeFSrIk958UR365Rvj6z-10" value="viewNotifications(cID)" style="edgeLabel;html=1;align=center;verticalAlign=middle;resizable=0;points=[];" parent="BeFSrIk958UR365Rvj6z-9" vertex="1" connectable="0">
          <mxGeometry x="-0.0645" y="3" relative="1" as="geometry">
            <mxPoint y="-7" as="offset" />
          </mxGeometry>
        </mxCell>
        <mxCell id="U9XzbLY1-AbpNYxQL2TC-36" value="return success/failure" style="html=1;verticalAlign=bottom;endArrow=open;dashed=1;endSize=8;edgeStyle=elbowEdgeStyle;elbow=horizontal;curved=0;rounded=0;" parent="1" edge="1">
          <mxGeometry relative="1" as="geometry">
            <mxPoint x="804" y="318" as="targetPoint" />
            <Array as="points">
              <mxPoint x="824" y="318" />
            </Array>
            <mxPoint x="963.5" y="318" as="sourcePoint" />
          </mxGeometry>
        </mxCell>
      </root>
    </mxGraphModel>
  </diagram>
</mxfile>
